<svg width="96" height="96" viewBox="0 0 96 96" fill="none" xmlns="http://www.w3.org/2000/svg">
<rect width="96" height="96" rx="20" fill="#25272E"/>
<path d="M59.8778 53.7188V78H53.6761V24.1818H59.8778V43.9432H60.4034C61.3494 41.8584 62.7685 40.2029 64.6605 38.9766C66.5701 37.7327 69.1103 37.1108 72.2812 37.1108C75.0317 37.1108 77.4406 37.6626 79.5078 38.7663C81.575 39.8525 83.178 41.5256 84.3168 43.7855C85.473 46.0279 86.0511 48.8835 86.0511 52.3523V78H79.8494V52.7727C79.8494 49.5668 79.0173 47.0878 77.353 45.3359C75.7062 43.5665 73.42 42.6818 70.4943 42.6818C68.4621 42.6818 66.6402 43.111 65.0284 43.9695C63.4342 44.8279 62.1728 46.0805 61.2443 47.7273C60.3333 49.3741 59.8778 51.3712 59.8778 53.7188Z" fill="#FCC232"/>
<path d="M11.429 78V24.9091H43.2628V30.6122H17.858V48.5511H40.8778V54.2543H17.858V78H11.429Z" fill="#FFFFFE"/>
</svg>
